<svg width="24" height="24" viewBox="0 0 24 24" fill="none" xmlns="http://www.w3.org/2000/svg">
<path fill-rule="evenodd" clip-rule="evenodd" d="M12 24C18.6274 24 24 18.6274 24 12C24 5.37258 18.6274 0 12 0C5.37258 0 0 5.37258 0 12C0 18.6274 5.37258 24 12 24ZM17.6647 10.1879C18.0446 9.78705 18.0276 9.15411 17.6268 8.77419C17.2259 8.39428 16.593 8.41125 16.2131 8.8121L10.8574 14.463L8.81882 12.3121C8.43891 11.9112 7.80597 11.8943 7.40512 12.2742C7.00427 12.6541 6.9873 13.287 7.36721 13.6879L10.1315 16.6046C10.3204 16.8038 10.5828 16.9167 10.8574 16.9167C11.1319 16.9167 11.3943 16.8038 11.5832 16.6046L17.6647 10.1879Z" fill="#9499C3"/>
</svg>
